<svg xmlns="http://www.w3.org/2000/svg" width="48" height="48" id="user">
    <g fill-rule="evenodd" transform="translate(0 -1004.362)">
        <circle cx="24" cy="1028.362" r="24" fill="#239fdb"></circle>
        <path fill="#0b5ecd"
            style="line-height:normal;text-indent:0;text-align:start;text-decoration-line:none;text-decoration-style:solid;text-decoration-color:#000;text-transform:none;block-progression:tb;isolation:auto;mix-blend-mode:normal"
            d="M23.736 47.986 24 48a24 24 0 0 0 6.42-.875 24 24 0 0 0 6.547-2.93 24 24 0 0 0 8.096-8.69 24 24 0 0 0 1.865-4.413c.075-.274.196-.647.261-.924l-8.566-8.578c.049 0-.047.01 0-.004l8.572 8.588c.13-.452.223-.947.326-1.406.054-.312.102-.625.143-.938l-9.51-9.508a.5.5 0 0 0 0-.709l-1.06-1.06a.5.5 0 0 0-.707 0l-.23.23-.553-.553a.5.5 0 0 0-.5-.5h-1.5a.5.5 0 0 0-.5.5v.51c-.145.05-.285.108-.422.174l-.362-.361a.5.5 0 0 0-.707 0l-1.06 1.06a.5.5 0 0 0-.086.112l-6.113-6.114-.008-.007a5.53 5.53 0 0 0-.381-.348l-.008-.006a5.506 5.506 0 0 0-.422-.314c-.103-.07-.212-.133-.32-.196-.044-.025-.086-.055-.131-.08a5.42 5.42 0 0 0-.473-.228l-.004-.002c-.162-.07-.33-.13-.5-.184-.1-.032-.206-.054-.31-.08a5.403 5.403 0 0 0-1.317-.168c-3.021 0-5.48 2.47-5.48 5.5 0 .19.01.376.03.56v.003c.018.183.045.366.081.544.013.063.032.122.047.184.028.115.053.23.088.342l.002.004c.053.17.115.339.184.502l.002.004c.069.163.144.322.228.476l.004.006c.084.155.176.304.274.45.024.036.052.069.078.105.076.107.153.215.236.316l.006.006c.111.135.228.265.351.389l.004.004 2.606 2.605H17.5c-4.148 0-7.5 3.368-7.5 7.53v4.515c0 .138.055.263.146.354zM37.5 20.627l-3.418-3.418Zm-5.63-1.697c-.025.042-.045.087-.067.13l-.002-.001c.022-.044.044-.087.068-.13z"
            color="#000" font-family="sans-serif" font-weight="400" transform="translate(0 1004.362)"></path>
        <path fill="#fff"
            style="line-height:normal;text-indent:0;text-align:start;text-decoration-line:none;text-decoration-style:solid;text-decoration-color:#000;text-transform:none;block-progression:tb;isolation:auto;mix-blend-mode:normal"
            d="M11.502 2c-3.022 0-5.48 2.47-5.48 5.5S8.48 13 11.501 13c3.022 0 5.48-2.47 5.48-5.5S14.524 2 11.502 2Zm0 1c2.48 0 4.48 2.007 4.48 4.5 0 2.492-2 4.5-4.48 4.5a4.483 4.483 0 0 1-4.48-4.5c0-2.492 2-4.5 4.48-4.5Zm13.123 4.73a.5.5 0 0 0-.5.5v.512a3.96 3.96 0 0 0-.422.172l-.361-.36a.5.5 0 0 0-.707 0l-1.06 1.061a.5.5 0 0 0 0 .707l.36.362a3.852 3.852 0 0 0-.175.421h-.51a.5.5 0 0 0-.5.5v1.5a.5.5 0 0 0 .5.5h.512c.05.145.105.285.172.422l-.36.362a.5.5 0 0 0 0 .707l1.06 1.06a.5.5 0 0 0 .708 0l.361-.361c.138.067.278.124.422.174v.511a.5.5 0 0 0 .5.5h1.5a.5.5 0 0 0 .5-.5v-.511c.144-.05.284-.108.422-.174l.361.361a.5.5 0 0 0 .707 0l1.06-1.06a.5.5 0 0 0 0-.707l-.36-.362a3.86 3.86 0 0 0 .175-.422h.51a.5.5 0 0 0 .5-.5v-1.5a.5.5 0 0 0-.5-.5h-.512a3.856 3.856 0 0 0-.174-.421l.362-.362a.5.5 0 0 0 0-.707l-1.06-1.06a.5.5 0 0 0-.708 0l-.361.361a3.797 3.797 0 0 0-.422-.176v-.51a.5.5 0 0 0-.5-.5h-1.5zm.5 1h.5v.338a.5.5 0 0 0 .389.489c.315.072.617.195.89.367a.5.5 0 0 0 .62-.07l.238-.239.353.354-.238.236a.5.5 0 0 0-.07.62c.17.274.296.574.367.89a.5.5 0 0 0 .486.39H29v.5h-.338a.5.5 0 0 0-.488.39 2.879 2.879 0 0 1-.367.89.5.5 0 0 0 .07.619l.238.238-.353.354-.237-.239a.5.5 0 0 0-.619-.07 2.872 2.872 0 0 1-.89.365.5.5 0 0 0-.391.489v.34h-.5v-.338a.5.5 0 0 0-.389-.489 2.881 2.881 0 0 1-.89-.367.5.5 0 0 0-.62.068l-.238.239-.353-.354.238-.238a.5.5 0 0 0 .07-.617 2.876 2.876 0 0 1-.367-.89.5.5 0 0 0-.486-.391h-.34v-.5h.338a.5.5 0 0 0 .488-.39c.072-.314.196-.616.367-.89a.5.5 0 0 0-.07-.619l-.238-.238.353-.354.237.237a.5.5 0 0 0 .619.072c.274-.171.575-.296.89-.367a.5.5 0 0 0 .391-.487V8.73zm.25 1.979c-.903 0-1.646.743-1.646 1.646 0 .903.743 1.647 1.646 1.647.903 0 1.646-.744 1.646-1.647s-.743-1.646-1.646-1.646zm0 1a.647.647 0 1 1 0 1.294.647.647 0 0 1 0-1.294zM8.521 14c-4.147 0-7.5 3.368-7.5 7.53v4.515a.5.5 0 0 0 .5.5h3.854a.5.5 0 0 0 .293 0h8.453c.06-.181.148-.353.274-.506a1.57 1.57 0 0 1-.993-.494h-7.38v-4.022a.5.5 0 0 0-.508-.507.5.5 0 0 0-.493.507v4.022h-3v-4.016c0-3.626 2.892-6.529 6.5-6.529h6c1.505 0 2.881.51 3.979 1.361.25-.222.57-.361.93-.361h.174a7.447 7.447 0 0 0-5.083-2h-6zm10.909 3.002a.5.5 0 0 0-.5.5v.893c-.31.096-.609.219-.897.369l-.629-.63a.5.5 0 0 0-.707 0l-1.543 1.544a.5.5 0 0 0 0 .707l.63.629c-.151.287-.275.586-.372.896h-.89a.5.5 0 0 0-.5.5v2.182a.5.5 0 0 0 .5.5h.892c.096.31.217.61.367.898l-.627.63a.5.5 0 0 0 0 .706l1.543 1.543a.5.5 0 0 0 .707 0l.63-.63c.287.15.585.274.896.37v.893a.5.5 0 0 0 .5.5h2.181a.5.5 0 0 0 .5-.5v-.895c.31-.096.61-.217.899-.367l.629.63a.5.5 0 0 0 .707 0l1.543-1.544a.5.5 0 0 0 0-.707l-.631-.63c.15-.289.274-.587.37-.897h.893a.5.5 0 0 0 .5-.5V22.41a.5.5 0 0 0-.5-.5h-.894a5.38 5.38 0 0 0-.367-.896l.629-.63a.5.5 0 0 0 0-.706l-1.543-1.543a.5.5 0 0 0-.707 0l-.631.63a5.38 5.38 0 0 0-.897-.372v-.891a.5.5 0 0 0-.5-.5H19.43zm.5 1h1.181v.719a.5.5 0 0 0 .389.486c.483.11.945.301 1.365.564a.5.5 0 0 0 .62-.068l.507-.508.836.836-.506.504a.5.5 0 0 0-.07.62c.262.42.452.88.56 1.365a.5.5 0 0 0 .489.39h.72v1.182h-.718a.5.5 0 0 0-.489.388c-.11.484-.3.946-.564 1.366a.5.5 0 0 0 .07.619l.508.508-.836.836-.506-.506a.5.5 0 0 0-.617-.07c-.42.262-.883.451-1.367.56a.5.5 0 0 0-.39.488v.721H19.93v-.719a.5.5 0 0 0-.389-.488 4.413 4.413 0 0 1-1.365-.565.5.5 0 0 0-.62.07l-.505.509-.836-.836.504-.506a.5.5 0 0 0 .072-.617 4.413 4.413 0 0 1-.56-1.368.5.5 0 0 0-.489-.39h-.72V22.91h.718a.5.5 0 0 0 .487-.389c.11-.483.3-.945.564-1.365a.5.5 0 0 0-.068-.619l-.508-.506.836-.836.504.504a.5.5 0 0 0 .619.072c.42-.262.881-.451 1.365-.56a.5.5 0 0 0 .39-.488v-.721zm.591 3a2.51 2.51 0 0 0-2.5 2.498 2.513 2.513 0 0 0 2.5 2.502A2.51 2.51 0 0 0 23.02 23.5a2.508 2.508 0 0 0-2.499-2.498zm0 1a1.5 1.5 0 0 1 0 3c-.825 0-1.5-.676-1.5-1.502s.674-1.498 1.5-1.498z"
            color="#000" font-family="sans-serif" font-weight="400" overflow="visible"
            transform="translate(8.979 1012.361)"></path>
    </g>
</svg>